PathFileType	4	(X/Y/Z)	 2.2Hzlow3min.trc
DataRate	CameraRate	NumFrames	NumMarkers	Units	OrigDataRate	OrigDataStartFrame	OrigNumFrames
200	200	9	43	m	200	251	1000
Frame#	Time	C7			LSH			RSH			MAN			RASI			LASI			HIPR			HIPL			RPSI			LPSI			COX			RTHI1			RTHI2			RTHI3			RTHI4			RLKN			RMKN			RSHA1			RSHA2			RSHA3			RSHA4			RLMAL			RMMAL			RHEEL			RMET5			RMET1			RTOE			LTHI1			LTHI2			LTHI3			LTHI4			LLKN			LMKN			LSHA1			LSHA2			LSHA3			LSHA4			LLMAL			LMMAL			LHEEL			LMET5			LMET1			LTOE			
		X1	Y1	Z1	X2	Y2	Z2	X3	Y3	Z3	X4	Y4	Z4	X5	Y5	Z5	X6	Y6	Z6	X7	Y7	Z7	X8	Y8	Z8	X9	Y9	Z9	X10	Y10	Z10	X11	Y11	Z11	X12	Y12	Z12	X13	Y13	Z13	X14	Y14	Z14	X15	Y15	Z15	X16	Y16	Z16	X17	Y17	Z17	X18	Y18	Z18	X19	Y19	Z19	X20	Y20	Z20	X21	Y21	Z21	X22	Y22	Z22	X23	Y23	Z23	X24	Y24	Z24	X25	Y25	Z25	X26	Y26	Z26	X27	Y27	Z27	X28	Y28	Z28	X29	Y29	Z29	X30	Y30	Z30	X31	Y31	Z31	X32	Y32	Z32	X33	Y33	Z33	X34	Y34	Z34	X35	Y35	Z35	X36	Y36	Z36	X37	Y37	Z37	X38	Y38	Z38	X39	Y39	Z39	X40	Y40	Z40	X41	Y41	Z41	X42	Y42	Z42	X43	Y43	Z43	
251	1.2550	-0.333408	1.362996	-0.495770	-0.248598	1.361900	-0.652893	-0.253653	1.351048	-0.352746	-0.204680	1.301263	-0.501264	-0.191746	0.869733	-0.383429	-0.206127	0.872297	-0.628578	-0.240297	0.928985	-0.361451	-0.256686	0.938962	-0.645606	-0.356540	0.905031	-0.464868	-0.363375	0.902724	-0.529698	-0.365274	0.900094	-0.497630	-0.269042	0.681747	-0.328425	-0.243219	0.627920	-0.326001	-0.183431	0.651896	-0.324130	-0.201569	0.710934	-0.325946	-0.202711	0.436524	-0.343202	-0.189049	0.423493	-0.462747	-0.326730	0.316098	-0.349036	-0.339144	0.278115	-0.359228	-0.293947	0.252669	-0.339515	-0.274109	0.291301	-0.331222	-0.361439	0.127046	-0.374061	-0.339470	0.128043	-0.450373	-0.412430	0.128038	-0.412019	-0.284690	0.036263	-0.355455	-0.247736	0.045468	-0.421279	-0.223709	0.034511	-0.420830	-0.302514	0.700687	-0.680010	-0.278663	0.644509	-0.688560	-0.217390	0.665510	-0.697078	-0.234179	0.722842	-0.690478	-0.234162	0.426289	-0.690134	-0.213086	0.423583	-0.574696	-0.364512	0.290841	-0.670284	-0.378939	0.255130	-0.656442	-0.326342	0.231642	-0.679038	-0.317619	0.273292	-0.690556	-0.388393	0.130872	-0.652785	-0.368820	0.131240	-0.576899	-0.435155	0.139878	-0.599965	-0.321656	0.041588	-0.669291	-0.281453	0.046713	-0.606083	-0.261342	0.036711	-0.608968	
252	1.2600	-0.333364	1.356301	-0.495796	-0.248588	1.355060	-0.653284	-0.253567	1.344263	-0.352454	-0.204240	1.294485	-0.501334	-0.192565	0.862841	-0.383246	-0.206758	0.865245	-0.628801	-0.241050	0.922009	-0.361258	-0.257134	0.931811	-0.645851	-0.357413	0.898323	-0.464946	-0.364203	0.896023	-0.529853	-0.366173	0.893403	-0.497744	-0.269146	0.674556	-0.328289	-0.242868	0.620971	-0.325553	-0.183296	0.645471	-0.323467	-0.201933	0.704352	-0.325579	-0.200393	0.429892	-0.342811	-0.186803	0.416985	-0.462019	-0.326235	0.311759	-0.348331	-0.339338	0.274189	-0.358685	-0.294299	0.247776	-0.339520	-0.273837	0.286070	-0.331222	-0.363642	0.123793	-0.374272	-0.342526	0.125201	-0.450734	-0.415234	0.124318	-0.411899	-0.286022	0.035462	-0.354906	-0.248490	0.045577	-0.421001	-0.224048	0.034456	-0.420664	-0.302832	0.693427	-0.680169	-0.278760	0.637391	-0.689076	-0.217652	0.658732	-0.697931	-0.234688	0.715950	-0.690993	-0.232161	0.419814	-0.691497	-0.211394	0.416798	-0.576303	-0.364843	0.287184	-0.671450	-0.380017	0.251911	-0.657684	-0.327390	0.227512	-0.679320	-0.318059	0.268959	-0.691111	-0.390668	0.127636	-0.652674	-0.372038	0.128666	-0.576523	-0.438301	0.136415	-0.600269	-0.322566	0.040952	-0.669565	-0.281939	0.046788	-0.606151	-0.261396	0.036645	-0.608860	
253	1.2650	-0.333288	1.349686	-0.495833	-0.248604	1.348251	-0.653742	-0.253531	1.337503	-0.352093	-0.203741	1.287696	-0.501405	-0.193404	0.855914	-0.383016	-0.207400	0.858173	-0.629043	-0.241862	0.914909	-0.360980	-0.257587	0.924533	-0.646151	-0.358357	0.891508	-0.465007	-0.365091	0.889221	-0.529993	-0.367139	0.886612	-0.497839	-0.269176	0.667314	-0.328049	-0.242432	0.613976	-0.325025	-0.183084	0.639014	-0.322731	-0.202235	0.697717	-0.325112	-0.198038	0.423416	-0.342325	-0.184627	0.410659	-0.461402	-0.325496	0.307555	-0.347502	-0.339260	0.270436	-0.357964	-0.294316	0.243066	-0.339502	-0.273239	0.281051	-0.331168	-0.365431	0.120386	-0.374488	-0.345065	0.122312	-0.451041	-0.417725	0.120597	-0.411842	-0.286770	0.034666	-0.354410	-0.248961	0.045588	-0.420743	-0.224105	0.034391	-0.420582	-0.303072	0.686045	-0.680388	-0.278749	0.630176	-0.689660	-0.217824	0.651905	-0.698875	-0.235143	0.708994	-0.691596	-0.230218	0.413519	-0.692878	-0.209626	0.410026	-0.577907	-0.364801	0.283500	-0.672775	-0.380725	0.248648	-0.659133	-0.328041	0.223343	-0.679774	-0.318109	0.264586	-0.691769	-0.392510	0.124329	-0.652648	-0.374669	0.125993	-0.576280	-0.441114	0.132974	-0.600612	-0.323226	0.040174	-0.669875	-0.282263	0.046809	-0.606186	-0.261273	0.036568	-0.608748	
254	1.2700	-0.333190	1.343219	-0.495881	-0.248655	1.341537	-0.654272	-0.253552	1.330830	-0.351665	-0.203194	1.280955	-0.501485	-0.194265	0.849002	-0.382730	-0.208053	0.851130	-0.629303	-0.242752	0.907726	-0.360615	-0.258062	0.917153	-0.646510	-0.359388	0.884606	-0.465042	-0.366050	0.882344	-0.530115	-0.368185	0.879739	-0.497918	-0.269169	0.660114	-0.327676	-0.241959	0.607029	-0.324419	-0.182840	0.632593	-0.321957	-0.202500	0.691117	-0.324560	-0.195725	0.417176	-0.341758	-0.182605	0.404620	-0.460952	-0.324519	0.303452	-0.346601	-0.338946	0.266825	-0.357101	-0.294035	0.238519	-0.339461	-0.272399	0.276230	-0.331100	-0.366870	0.116917	-0.374708	-0.347175	0.119358	-0.451345	-0.419934	0.116934	-0.411837	-0.287230	0.033904	-0.353977	-0.249333	0.045607	-0.420549	-0.224037	0.034353	-0.420494	-0.303255	0.678588	-0.680695	-0.278639	0.622911	-0.690322	-0.217920	0.645069	-0.699896	-0.235556	0.702015	-0.692286	-0.228390	0.407471	-0.694249	-0.207808	0.403340	-0.579470	-0.364509	0.279707	-0.674221	-0.381165	0.245269	-0.660729	-0.328386	0.219061	-0.680334	-0.317873	0.260106	-0.692499	-0.394140	0.120988	-0.652636	-0.376883	0.123281	-0.576111	-0.443651	0.129626	-0.600972	-0.323920	0.039398	-0.670307	-0.282637	0.046864	-0.606353	-0.261154	0.036520	-0.608752	
255	1.2750	-0.333083	1.336955	-0.495937	-0.248741	1.334989	-0.654864	-0.253659	1.324318	-0.351161	-0.202612	1.274326	-0.501581	-0.195150	0.842159	-0.382375	-0.208715	0.844166	-0.629587	-0.243729	0.900500	-0.360161	-0.258583	0.909711	-0.646921	-0.360526	0.877648	-0.465055	-0.367099	0.875418	-0.530219	-0.369336	0.872822	-0.497976	-0.269181	0.653091	-0.327167	-0.241513	0.600247	-0.323754	-0.182623	0.626324	-0.321171	-0.202778	0.684669	-0.323923	-0.193530	0.411250	-0.341145	-0.180818	0.398955	-0.460688	-0.323388	0.299434	-0.345695	-0.338483	0.263388	-0.356211	-0.293557	0.234111	-0.339450	-0.271391	0.271587	-0.331034	-0.368160	0.113519	-0.374937	-0.348977	0.116400	-0.451691	-0.421888	0.113465	-0.411918	-0.287645	0.033285	-0.353580	-0.249702	0.045636	-0.420355	-0.223975	0.034320	-0.420372	-0.303413	0.671146	-0.681116	-0.278469	0.615676	-0.691058	-0.217969	0.638288	-0.700974	-0.235959	0.695082	-0.693086	-0.226705	0.401713	-0.695570	-0.205965	0.396832	-0.580965	-0.364128	0.275827	-0.675681	-0.381483	0.241777	-0.662364	-0.328562	0.214717	-0.680898	-0.317482	0.255567	-0.693217	-0.395687	0.117707	-0.652615	-0.378816	0.120614	-0.575970	-0.445931	0.126437	-0.601265	-0.324633	0.038664	-0.670747	-0.283082	0.046950	-0.606558	-0.261093	0.036485	-0.608814	
256	1.2800	-0.332975	1.330942	-0.495995	-0.248868	1.328685	-0.655513	-0.253862	1.318032	-0.350579	-0.202007	1.267889	-0.501697	-0.196060	0.835446	-0.381936	-0.209384	0.837341	-0.629905	-0.244802	0.893282	-0.359627	-0.259167	0.902251	-0.647369	-0.361790	0.870670	-0.465045	-0.368262	0.868478	-0.530304	-0.370615	0.865900	-0.498010	-0.269261	0.646387	-0.326544	-0.241163	0.593776	-0.323062	-0.182491	0.620328	-0.320400	-0.203121	0.678504	-0.323208	-0.191513	0.405707	-0.340548	-0.179302	0.393745	-0.460575	-0.322212	0.295529	-0.344860	-0.337927	0.260015	-0.355313	-0.292971	0.229861	-0.339526	-0.270313	0.267120	-0.331062	-0.369434	0.110341	-0.375202	-0.350529	0.113553	-0.452122	-0.423592	0.110312	-0.412146	-0.288086	0.032769	-0.353224	-0.250110	0.045688	-0.420155	-0.223969	0.034281	-0.420197	-0.303586	0.663873	-0.681656	-0.278284	0.608599	-0.691827	-0.218009	0.631674	-0.702064	-0.236385	0.688329	-0.693985	-0.225173	0.396275	-0.696814	-0.204127	0.390601	-0.582367	-0.363796	0.271995	-0.677069	-0.381812	0.238301	-0.663943	-0.328702	0.210422	-0.681391	-0.317091	0.251079	-0.693854	-0.397232	0.114615	-0.652531	-0.380546	0.118083	-0.575810	-0.447947	0.123481	-0.601428	-0.325326	0.037980	-0.671162	-0.283547	0.047024	-0.606721	-0.261083	0.036448	-0.608902	
257	1.2850	-0.332878	1.325212	-0.496046	-0.249039	1.322701	-0.656200	-0.254113	1.312049	-0.349947	-0.201424	1.261718	-0.501817	-0.196988	0.828943	-0.381394	-0.210063	0.830729	-0.630274	-0.245989	0.886134	-0.359035	-0.259849	0.894844	-0.647831	-0.363188	0.863736	-0.465016	-0.369527	0.861574	-0.530383	-0.372015	0.859032	-0.498034	-0.269448	0.640156	-0.325857	-0.240956	0.587759	-0.322399	-0.182489	0.614756	-0.319673	-0.203556	0.672769	-0.322441	-0.189703	0.400601	-0.340020	-0.178055	0.389059	-0.460542	-0.321113	0.291829	-0.344134	-0.337298	0.256656	-0.354662	-0.292357	0.225824	-0.339743	-0.269262	0.262879	-0.331215	-0.370721	0.107527	-0.375518	-0.351852	0.110958	-0.452649	-0.425016	0.107539	-0.412571	-0.288526	0.032407	-0.352970	-0.250522	0.045727	-0.420006	-0.224000	0.034236	-0.420009	-0.303796	0.656963	-0.682298	-0.278123	0.601881	-0.692584	-0.218070	0.625399	-0.703098	-0.236840	0.681923	-0.694940	-0.223800	0.391190	-0.697962	-0.202327	0.384761	-0.583671	-0.363569	0.268330	-0.678255	-0.382116	0.234932	-0.665246	-0.328873	0.206348	-0.681774	-0.316785	0.246840	-0.694365	-0.398769	0.111826	-0.652376	-0.382102	0.115750	-0.575605	-0.449686	0.120799	-0.601427	-0.325920	0.037409	-0.671509	-0.283976	0.047083	-0.606843	-0.261108	0.036408	-0.609010	
258	1.2900	-0.332790	1.319810	-0.496084	-0.249256	1.317110	-0.656892	-0.254385	1.306441	-0.349289	-0.200913	1.255916	-0.501925	-0.197927	0.822745	-0.380729	-0.210756	0.824421	-0.630710	-0.247302	0.879147	-0.358401	-0.260642	0.887572	-0.648280	-0.364726	0.856951	-0.464971	-0.370898	0.854818	-0.530469	-0.373531	0.852325	-0.498060	-0.269750	0.634535	-0.325168	-0.240907	0.582336	-0.321826	-0.182630	0.609725	-0.319027	-0.204088	0.667599	-0.321660	-0.188130	0.396010	-0.339585	-0.177027	0.384951	-0.460493	-0.320078	0.288324	-0.343655	-0.336635	0.253415	-0.354356	-0.291753	0.222081	-0.340081	-0.268331	0.258976	-0.331489	-0.371802	0.105178	-0.375928	-0.352926	0.108717	-0.453269	-0.426161	0.105160	-0.413188	-0.288954	0.032129	-0.352846	-0.250878	0.045768	-0.419872	-0.224013	0.034199	-0.419806	-0.304045	0.650671	-0.683015	-0.278019	0.595751	-0.693284	-0.218162	0.619643	-0.704004	-0.237300	0.676060	-0.695892	-0.222589	0.386506	-0.699000	-0.200600	0.379442	-0.584869	-0.363405	0.264988	-0.679164	-0.382385	0.231836	-0.666240	-0.329074	0.202673	-0.682049	-0.316573	0.243034	-0.694746	-0.400212	0.109410	-0.652146	-0.383474	0.113675	-0.575343	-0.451153	0.118445	-0.601280	-0.326460	0.036937	-0.671798	-0.284366	0.047112	-0.606929	-0.261157	0.036368	-0.609126	
259	1.2950	-0.332706	1.314796	-0.496105	-0.249510	1.311979	-0.657555	-0.254649	1.301265	-0.348642	-0.200490	1.250580	-0.502016	-0.198862	0.816964	-0.379928	-0.211459	0.818524	-0.631216	-0.248734	0.872437	-0.357738	-0.261557	0.880558	-0.648698	-0.366360	0.850473	-0.464933	-0.372361	0.848360	-0.530559	-0.375140	0.845932	-0.498081	-0.270130	0.629627	-0.324567	-0.240990	0.577599	-0.321393	-0.182877	0.605332	-0.318486	-0.204676	0.663079	-0.320921	-0.186794	0.392003	-0.339253	-0.176131	0.381473	-0.460361	-0.319149	0.285145	-0.343429	-0.335934	0.250394	-0.354413	-0.291172	0.218721	-0.340545	-0.267469	0.255474	-0.331831	-0.372702	0.103247	-0.376486	-0.353708	0.106886	-0.453972	-0.427038	0.103184	-0.414019	-0.289332	0.031948	-0.352800	-0.251111	0.045771	-0.419810	-0.223954	0.034168	-0.419579	-0.304309	0.645234	-0.683759	-0.277993	0.590415	-0.693865	-0.218274	0.614587	-0.704718	-0.237723	0.670932	-0.696778	-0.221535	0.382278	-0.699918	-0.198999	0.374762	-0.585953	-0.363248	0.262117	-0.679778	-0.382563	0.229153	-0.666903	-0.329267	0.199521	-0.682241	-0.316418	0.239777	-0.695016	-0.401441	0.107397	-0.651863	-0.384604	0.111906	-0.575027	-0.452333	0.116429	-0.600981	-0.326945	0.036556	-0.672030	-0.284716	0.047156	-0.607004	-0.261213	0.036343	-0.609260	
